<svg xmlns="http://www.w3.org/2000/svg" viewBox="0.00 0.00 741.00 136.00"><g stroke-width="3.40" fill="none" stroke-linecap="butt"><path stroke="#b2ebc9" d="  M 217.1096 21.0088  A 9.30 8.69 -0.5 0 0 207.7342 12.4003  A 9.30 8.69 -0.5 0 0 198.5104 21.1712  A 9.30 8.69 -0.5 0 0 207.8858 29.7797  A 9.30 8.69 -0.5 0 0 217.1096 21.0088"></path><path stroke="#9aa2b1" d="  M 159.88 48.95  Q 160.63 44.30 161.65 39.71  C 162.61 35.38 162.94 32.02 159.84 29.03  C 156.34 25.65 150.46 25.48 146.69 28.68  Q 125.84 46.35 104.97 64.07  Q 104.44 64.52 104.59 63.83  C 105.90 57.75 110.51 47.94 103.46 43.56  Q 97.35 39.77 91.71 44.73  Q 63.55 69.46 35.52 94.36  Q 32.84 96.74 32.03 98.54  C 28.78 105.83 36.39 112.25 43.32 110.13  Q 45.56 109.45 48.72 106.65  Q 65.09 92.15 81.57 77.53  A 0.25 0.24 -12.8 0 1 81.97 77.78  C 80.82 81.70 78.69 87.84 79.23 91.43  C 80.00 96.52 85.98 99.60 90.70 98.32  Q 93.05 97.68 96.86 94.45  Q 117.44 76.96 138.11 59.52  Q 138.72 59.01 138.58 59.79  C 137.77 64.14 135.67 70.65 136.48 74.33  C 137.54 79.19 143.23 81.96 147.94 80.73  Q 150.02 80.18 153.22 77.65  Q 174.23 61.04 195.27 44.48  C 198.63 41.83 200.72 39.70 200.26 35.48  C 199.65 29.92 194.26 26.80 188.97 27.99  Q 186.38 28.58 182.66 31.58  Q 171.58 40.53 160.29 49.20  Q 159.78 49.59 159.88 48.95"></path><path stroke="#9aa2b1" d="  M 422.9865 48.7472  A 8.27 8.05 88.5 0 0 430.8172 40.2693  A 8.27 8.05 88.5 0 0 422.5535 32.2128  A 8.27 8.05 88.5 0 0 414.7228 40.6907  A 8.27 8.05 88.5 0 0 422.9865 48.7472"></path><path stroke="#b2ebc9" d="  M 623.8252 39.5288  A 7.17 7.17 0.0 0 0 616.6178 32.3964  L 615.2178 32.4038  A 7.17 7.17 0.0 0 0 608.0854 39.6112  L 608.0948 41.3912  A 7.17 7.17 0.0 0 0 615.3022 48.5236  L 616.7022 48.5162  A 7.17 7.17 0.0 0 0 623.8346 41.3088  L 623.8252 39.5288"></path><path stroke="#9aa2b1" d="  M 276.08 69.45  Q 275.86 82.70 276.05 96.25  C 276.19 106.42 289.05 106.05 289.06 96.24  Q 289.10 70.62 289.26 45.00  C 289.32 35.77 279.73 31.08 275.33 40.86  Q 268.02 57.13 260.75 73.28  A 0.47 0.47 0.0 0 1 259.90 73.28  Q 252.69 57.40 245.43 41.31  C 241.25 32.06 231.30 34.48 231.29 44.25  Q 231.25 68.37 231.31 92.50  C 231.32 96.21 231.01 100.12 234.03 102.50  C 238.24 105.82 244.22 102.30 244.29 97.25  Q 244.47 83.43 244.37 69.81  A 0.34 0.34 0.0 0 1 245.02 69.67  Q 249.48 79.45 254.17 89.06  C 256.90 94.63 263.23 95.35 265.99 89.51  Q 270.69 79.56 275.38 69.29  A 0.37 0.37 0.0 0 1 276.08 69.45"></path><path stroke="#9aa2b1" d="  M 455.91 83.65  Q 464.02 92.40 471.86 101.39  C 475.72 105.80 480.73 103.22 482.29 98.51  Q 484.01 93.29 479.55 88.68  Q 477.12 86.16 470.99 78.93  Q 470.67 78.54 471.01 78.18  C 474.12 74.78 480.88 68.30 481.55 63.92  C 482.19 59.75 478.10 53.85 473.47 55.54  Q 471.80 56.15 469.40 58.95  Q 462.61 66.89 455.96 75.01  A 0.40 0.40 0.0 0 1 455.25 74.75  Q 455.26 59.00 455.18 43.00  C 455.12 32.73 440.79 32.79 440.78 43.76  Q 440.75 69.50 440.86 95.25  C 440.90 106.74 455.50 106.44 455.26 95.25  Q 455.13 88.80 455.31 83.87  Q 455.34 83.03 455.91 83.65"></path><path stroke="#b2ebc9" d="  M 583.81 68.91  Q 583.81 81.29 583.77 93.77  Q 583.76 98.01 584.35 99.65  C 586.98 106.93 596.67 104.08 596.69 96.25  Q 596.77 70.00 596.70 43.76  Q 596.69 38.44 592.52 36.18  C 587.65 33.53 583.83 38.46 582.10 42.43  Q 575.41 57.75 568.47 73.20  A 0.54 0.54 0.0 0 1 567.48 73.20  Q 560.12 56.68 552.47 40.01  C 548.87 32.17 539.03 35.27 539.02 43.52  Q 538.96 70.26 539.03 97.00  C 539.06 105.93 551.85 106.55 552.01 95.47  Q 552.18 82.95 552.02 70.04  A 0.44 0.44 0.0 0 1 552.87 69.86  Q 557.28 79.86 562.29 89.96  C 565.06 95.56 571.49 94.15 573.92 88.99  Q 578.64 78.92 583.32 68.80  A 0.26 0.26 0.0 0 1 583.81 68.91"></path><path stroke="#b2ebc9" d="  M 711.07 61.00  C 707.37 56.07 701.51 54.04 695.49 55.76  C 681.66 59.72 679.87 77.80 683.23 89.52  C 686.36 100.43 696.00 107.78 707.22 101.80  C 708.94 100.88 710.06 99.07 711.50 97.67  Q 712.03 97.16 712.14 97.88  Q 713.17 104.28 719.52 103.77  C 724.90 103.33 725.98 99.09 726.01 94.18  Q 726.14 68.84 726.02 43.51  Q 725.99 36.48 719.77 35.52  C 713.55 34.56 711.70 39.10 711.60 44.54  Q 711.44 52.67 711.61 60.82  A 0.30 0.30 0.0 0 1 711.07 61.00"></path><path stroke="#9aa2b1" d="  M 362.31 68.76  C 367.75 68.87 373.55 68.63 372.53 61.23  C 371.75 55.53 366.19 56.37 362.10 56.23  Q 361.52 56.22 361.54 55.64  C 361.75 50.08 362.04 42.93 355.51 42.19  C 346.34 41.16 347.47 49.69 347.14 55.61  Q 347.11 56.15 346.57 56.20  C 342.62 56.57 338.84 56.45 338.25 61.32  C 337.65 66.27 340.96 69.70 346.19 68.57  A 0.86 0.86 0.0 0 1 347.23 69.42  Q 347.08 79.44 347.52 88.95  Q 347.92 97.46 354.30 101.21  C 359.22 104.09 375.01 106.71 372.46 95.49  C 370.91 88.69 361.86 94.89 361.67 87.00  Q 361.41 76.10 361.66 69.38  Q 361.68 68.75 362.31 68.76"></path><path stroke="#b2ebc9" d="  M 648.12 61.21  C 647.03 56.52 642.82 53.91 638.35 55.95  C 634.40 57.75 634.04 60.99 634.02 65.42  Q 633.96 80.59 634.03 95.74  C 634.05 100.94 637.06 104.17 642.31 103.66  C 647.67 103.14 648.53 98.81 648.51 93.96  Q 648.48 85.23 648.62 76.50  Q 648.70 71.10 652.60 68.92  C 656.51 66.73 660.43 69.02 660.49 73.52  Q 660.64 83.99 660.70 94.49  C 660.73 99.84 662.49 104.32 668.53 103.74  C 675.37 103.09 675.05 97.72 675.10 91.67  Q 675.17 81.46 674.82 71.26  Q 674.68 67.12 673.24 63.26  C 669.96 54.44 659.33 52.85 652.16 57.98  C 650.93 58.85 650.03 60.28 648.89 61.43  Q 648.31 62.01 648.12 61.21"></path><path stroke="#9aa2b1" d="  M 311.51 82.94  Q 321.64 83.12 331.77 82.95  Q 333.33 82.92 334.05 82.47  C 337.23 80.46 334.68 69.75 333.50 66.90  C 330.37 59.33 324.29 54.71 315.99 55.15  C 302.01 55.90 295.56 69.98 296.93 82.72  C 298.92 101.26 314.01 108.35 330.39 101.17  C 337.88 97.89 336.77 85.03 327.92 89.08  C 321.26 92.13 311.37 93.88 311.03 83.43  Q 311.01 82.93 311.51 82.94"></path><path stroke="#9aa2b1" d="  M 392.84 62.94  C 392.34 59.05 391.24 55.60 386.74 55.35  C 382.30 55.11 379.17 57.96 379.14 62.50  Q 378.99 79.38 378.97 96.24  C 378.96 104.04 389.10 106.42 392.29 100.67  Q 393.45 98.57 393.46 93.41  Q 393.48 85.70 393.57 78.01  C 393.66 70.76 399.26 70.60 404.77 69.47  C 409.77 68.45 411.34 64.47 410.05 59.74  Q 408.50 54.07 402.21 55.56  Q 395.78 57.09 393.41 63.01  Q 392.98 64.09 392.84 62.94"></path><path stroke="#9aa2b1" d="  M 429.96 62.26  A 6.92 6.92 0.0 0 0 423.04 55.34  L 422.46 55.34  A 6.92 6.92 0.0 0 0 415.54 62.26  L 415.54 96.80  A 6.92 6.92 0.0 0 0 422.46 103.72  L 423.04 103.72  A 6.92 6.92 0.0 0 0 429.96 96.80  L 429.96 62.26"></path><path stroke="#9aa2b1" d="  M 513.58 97.94  C 515.65 101.82 517.01 104.86 522.15 103.55  C 526.46 102.46 527.17 99.27 527.22 95.24  Q 527.36 84.00 527.00 72.75  C 526.41 53.86 508.80 52.18 495.19 57.88  Q 489.57 60.23 490.66 66.62  C 492.79 79.19 512.44 57.29 513.64 73.89  Q 513.73 75.09 512.53 75.04  C 504.98 74.72 492.38 75.04 489.50 83.69  Q 487.78 88.85 489.71 94.16  C 491.90 100.20 496.31 103.44 502.72 103.80  Q 510.30 104.23 513.04 97.96  Q 513.29 97.39 513.58 97.94"></path><path stroke="#b2ebc9" d="  M 623.21 62.28  A 6.96 6.96 0.0 0 0 616.25 55.32  L 615.73 55.32  A 6.96 6.96 0.0 0 0 608.77 62.28  L 608.77 96.78  A 6.96 6.96 0.0 0 0 615.73 103.74  L 616.25 103.74  A 6.96 6.96 0.0 0 0 623.21 96.78  L 623.21 62.28"></path><path stroke="#9aa2b1" d="  M 34.57 114.10  A 7.56 7.04 0.0 0 0 27.01 107.06  A 7.56 7.04 0.0 0 0 19.45 114.10  A 7.56 7.04 0.0 0 0 27.01 121.14  A 7.56 7.04 0.0 0 0 34.57 114.10"></path><path stroke="#9aa2b1" d="  M 21.2296 123.6523  A 5.54 5.15 -0.7 0 0 15.6271 118.5704  A 5.54 5.15 -0.7 0 0 10.1504 123.7877  A 5.54 5.15 -0.7 0 0 15.7529 128.8696  A 5.54 5.15 -0.7 0 0 21.2296 123.6523"></path><path stroke="#b2ebc9" d="  M 704.0018 91.4599  A 11.97 8.02 89.8 0 0 711.9800 79.4620  A 11.97 8.02 89.8 0 0 703.9182 67.5201  A 11.97 8.02 89.8 0 0 695.9400 79.5180  A 11.97 8.02 89.8 0 0 704.0018 91.4599"></path><path stroke="#9aa2b1" d="  M 311.35 74.94  L 322.91 74.98  A 0.50 0.50 0.0 0 0 323.41 74.48  L 323.41 74.35  A 7.75 6.22 -89.8 0 0 317.21 66.58  L 317.09 66.58  A 7.75 6.22 -89.8 0 0 310.85 74.31  L 310.85 74.44  A 0.50 0.50 0.0 0 0 311.35 74.94"></path><path stroke="#9aa2b1" d="  M 505.20 83.64  C 499.59 86.88 504.07 94.98 509.37 92.12  Q 514.05 89.59 513.29 83.22  Q 513.25 82.89 512.91 82.87  Q 506.98 82.62 505.20 83.64"></path></g><g fill="#ffffff"><path d="  M 0.00 0.00  L 741.00 0.00  L 741.00 136.00  L 0.00 136.00  L 0.00 0.00  Z  M 217.1096 21.0088  A 9.30 8.69 -0.5 0 0 207.7342 12.4003  A 9.30 8.69 -0.5 0 0 198.5104 21.1712  A 9.30 8.69 -0.5 0 0 207.8858 29.7797  A 9.30 8.69 -0.5 0 0 217.1096 21.0088  Z  M 159.88 48.95  Q 160.63 44.30 161.65 39.71  C 162.61 35.38 162.94 32.02 159.84 29.03  C 156.34 25.65 150.46 25.48 146.69 28.68  Q 125.84 46.35 104.97 64.07  Q 104.44 64.52 104.59 63.83  C 105.90 57.75 110.51 47.94 103.46 43.56  Q 97.35 39.77 91.71 44.73  Q 63.55 69.46 35.52 94.36  Q 32.84 96.74 32.03 98.54  C 28.78 105.83 36.39 112.25 43.32 110.13  Q 45.56 109.45 48.72 106.65  Q 65.09 92.15 81.57 77.53  A 0.25 0.24 -12.8 0 1 81.97 77.78  C 80.82 81.70 78.69 87.84 79.23 91.43  C 80.00 96.52 85.98 99.60 90.70 98.32  Q 93.05 97.68 96.86 94.45  Q 117.44 76.96 138.11 59.52  Q 138.72 59.01 138.58 59.79  C 137.77 64.14 135.67 70.65 136.48 74.33  C 137.54 79.19 143.23 81.96 147.94 80.73  Q 150.02 80.18 153.22 77.65  Q 174.23 61.04 195.27 44.48  C 198.63 41.83 200.72 39.70 200.26 35.48  C 199.65 29.92 194.26 26.80 188.97 27.99  Q 186.38 28.58 182.66 31.58  Q 171.58 40.53 160.29 49.20  Q 159.78 49.59 159.88 48.95  Z  M 422.9865 48.7472  A 8.27 8.05 88.5 0 0 430.8172 40.2693  A 8.27 8.05 88.5 0 0 422.5535 32.2128  A 8.27 8.05 88.5 0 0 414.7228 40.6907  A 8.27 8.05 88.5 0 0 422.9865 48.7472  Z  M 623.8252 39.5288  A 7.17 7.17 0.0 0 0 616.6178 32.3964  L 615.2178 32.4038  A 7.17 7.17 0.0 0 0 608.0854 39.6112  L 608.0948 41.3912  A 7.17 7.17 0.0 0 0 615.3022 48.5236  L 616.7022 48.5162  A 7.17 7.17 0.0 0 0 623.8346 41.3088  L 623.8252 39.5288  Z  M 276.08 69.45  Q 275.86 82.70 276.05 96.25  C 276.19 106.42 289.05 106.05 289.06 96.24  Q 289.10 70.62 289.26 45.00  C 289.32 35.77 279.73 31.08 275.33 40.86  Q 268.02 57.13 260.75 73.28  A 0.47 0.47 0.0 0 1 259.90 73.28  Q 252.69 57.40 245.43 41.31  C 241.25 32.06 231.30 34.48 231.29 44.25  Q 231.25 68.37 231.31 92.50  C 231.32 96.21 231.01 100.12 234.03 102.50  C 238.24 105.82 244.22 102.30 244.29 97.25  Q 244.47 83.43 244.37 69.81  A 0.34 0.34 0.0 0 1 245.02 69.67  Q 249.48 79.45 254.17 89.06  C 256.90 94.63 263.23 95.35 265.99 89.51  Q 270.69 79.56 275.38 69.29  A 0.37 0.37 0.0 0 1 276.08 69.45  Z  M 455.91 83.65  Q 464.02 92.40 471.86 101.39  C 475.72 105.80 480.73 103.22 482.29 98.51  Q 484.01 93.29 479.55 88.68  Q 477.12 86.16 470.99 78.93  Q 470.67 78.54 471.01 78.18  C 474.12 74.78 480.88 68.30 481.55 63.92  C 482.19 59.75 478.10 53.85 473.47 55.54  Q 471.80 56.15 469.40 58.95  Q 462.61 66.89 455.96 75.01  A 0.40 0.40 0.0 0 1 455.25 74.75  Q 455.26 59.00 455.18 43.00  C 455.12 32.73 440.79 32.79 440.78 43.76  Q 440.75 69.50 440.86 95.25  C 440.90 106.74 455.50 106.44 455.26 95.25  Q 455.13 88.80 455.31 83.87  Q 455.34 83.03 455.91 83.65  Z  M 583.81 68.91  Q 583.81 81.29 583.77 93.77  Q 583.76 98.01 584.35 99.65  C 586.98 106.93 596.67 104.08 596.69 96.25  Q 596.77 70.00 596.70 43.76  Q 596.69 38.44 592.52 36.18  C 587.65 33.53 583.83 38.46 582.10 42.43  Q 575.41 57.75 568.47 73.20  A 0.54 0.54 0.0 0 1 567.48 73.20  Q 560.12 56.68 552.47 40.01  C 548.87 32.17 539.03 35.27 539.02 43.52  Q 538.96 70.26 539.03 97.00  C 539.06 105.93 551.85 106.55 552.01 95.47  Q 552.18 82.95 552.02 70.04  A 0.44 0.44 0.0 0 1 552.87 69.86  Q 557.28 79.86 562.29 89.96  C 565.06 95.56 571.49 94.15 573.92 88.99  Q 578.64 78.92 583.32 68.80  A 0.26 0.26 0.0 0 1 583.81 68.91  Z  M 711.07 61.00  C 707.37 56.07 701.51 54.04 695.49 55.76  C 681.66 59.72 679.87 77.80 683.23 89.52  C 686.36 100.43 696.00 107.78 707.22 101.80  C 708.94 100.88 710.06 99.07 711.50 97.67  Q 712.03 97.16 712.14 97.88  Q 713.17 104.28 719.52 103.77  C 724.90 103.33 725.98 99.09 726.01 94.18  Q 726.14 68.84 726.02 43.51  Q 725.99 36.48 719.77 35.52  C 713.55 34.56 711.70 39.10 711.60 44.54  Q 711.44 52.67 711.61 60.82  A 0.30 0.30 0.0 0 1 711.07 61.00  Z  M 362.31 68.76  C 367.75 68.87 373.55 68.63 372.53 61.23  C 371.75 55.53 366.19 56.37 362.10 56.23  Q 361.52 56.22 361.54 55.64  C 361.75 50.08 362.04 42.93 355.51 42.19  C 346.34 41.16 347.47 49.69 347.14 55.61  Q 347.11 56.15 346.57 56.20  C 342.62 56.57 338.84 56.45 338.25 61.32  C 337.65 66.27 340.96 69.70 346.19 68.57  A 0.86 0.86 0.0 0 1 347.23 69.42  Q 347.08 79.44 347.52 88.95  Q 347.92 97.46 354.30 101.21  C 359.22 104.09 375.01 106.71 372.46 95.49  C 370.91 88.69 361.86 94.89 361.67 87.00  Q 361.41 76.10 361.66 69.38  Q 361.68 68.75 362.31 68.76  Z  M 648.12 61.21  C 647.03 56.52 642.82 53.91 638.35 55.95  C 634.40 57.75 634.04 60.99 634.02 65.42  Q 633.96 80.59 634.03 95.74  C 634.05 100.94 637.06 104.17 642.31 103.66  C 647.67 103.14 648.53 98.81 648.51 93.96  Q 648.48 85.23 648.62 76.50  Q 648.70 71.10 652.60 68.92  C 656.51 66.73 660.43 69.02 660.49 73.52  Q 660.64 83.99 660.70 94.49  C 660.73 99.84 662.49 104.32 668.53 103.74  C 675.37 103.09 675.05 97.72 675.10 91.67  Q 675.17 81.46 674.82 71.26  Q 674.68 67.12 673.24 63.26  C 669.96 54.44 659.33 52.85 652.16 57.98  C 650.93 58.85 650.03 60.28 648.89 61.43  Q 648.31 62.01 648.12 61.21  Z  M 311.51 82.94  Q 321.64 83.12 331.77 82.95  Q 333.33 82.92 334.05 82.47  C 337.23 80.46 334.68 69.75 333.50 66.90  C 330.37 59.33 324.29 54.71 315.99 55.15  C 302.01 55.90 295.56 69.98 296.93 82.72  C 298.92 101.26 314.01 108.35 330.39 101.17  C 337.88 97.89 336.77 85.03 327.92 89.08  C 321.26 92.13 311.37 93.88 311.03 83.43  Q 311.01 82.93 311.51 82.94  Z  M 392.84 62.94  C 392.34 59.05 391.24 55.60 386.74 55.35  C 382.30 55.11 379.17 57.96 379.14 62.50  Q 378.99 79.38 378.97 96.24  C 378.96 104.04 389.10 106.42 392.29 100.67  Q 393.45 98.57 393.46 93.41  Q 393.48 85.70 393.57 78.01  C 393.66 70.76 399.26 70.60 404.77 69.47  C 409.77 68.45 411.34 64.47 410.05 59.74  Q 408.50 54.07 402.21 55.56  Q 395.78 57.09 393.41 63.01  Q 392.98 64.09 392.84 62.94  Z  M 429.96 62.26  A 6.92 6.92 0.0 0 0 423.04 55.34  L 422.46 55.34  A 6.92 6.92 0.0 0 0 415.54 62.26  L 415.54 96.80  A 6.92 6.92 0.0 0 0 422.46 103.72  L 423.04 103.72  A 6.92 6.92 0.0 0 0 429.96 96.80  L 429.96 62.26  Z  M 513.58 97.94  C 515.65 101.82 517.01 104.86 522.15 103.55  C 526.46 102.46 527.17 99.27 527.22 95.24  Q 527.36 84.00 527.00 72.75  C 526.41 53.86 508.80 52.18 495.19 57.88  Q 489.57 60.23 490.66 66.62  C 492.79 79.19 512.44 57.29 513.64 73.89  Q 513.73 75.09 512.53 75.04  C 504.98 74.72 492.38 75.04 489.50 83.69  Q 487.78 88.85 489.71 94.16  C 491.90 100.20 496.31 103.44 502.72 103.80  Q 510.30 104.23 513.04 97.96  Q 513.29 97.39 513.58 97.94  Z  M 623.21 62.28  A 6.96 6.96 0.0 0 0 616.25 55.32  L 615.73 55.32  A 6.96 6.96 0.0 0 0 608.77 62.28  L 608.77 96.78  A 6.96 6.96 0.0 0 0 615.73 103.74  L 616.25 103.74  A 6.96 6.96 0.0 0 0 623.21 96.78  L 623.21 62.28  Z  M 34.57 114.10  A 7.56 7.04 0.0 0 0 27.01 107.06  A 7.56 7.04 0.0 0 0 19.45 114.10  A 7.56 7.04 0.0 0 0 27.01 121.14  A 7.56 7.04 0.0 0 0 34.57 114.10  Z  M 21.2296 123.6523  A 5.54 5.15 -0.7 0 0 15.6271 118.5704  A 5.54 5.15 -0.7 0 0 10.1504 123.7877  A 5.54 5.15 -0.7 0 0 15.7529 128.8696  A 5.54 5.15 -0.7 0 0 21.2296 123.6523  Z"></path><path d="  M 311.35 74.94  A 0.50 0.50 0.0 0 1 310.85 74.44  L 310.85 74.31  A 7.75 6.22 -89.8 0 1 317.09 66.58  L 317.21 66.58  A 7.75 6.22 -89.8 0 1 323.41 74.35  L 323.41 74.48  A 0.50 0.50 0.0 0 1 322.91 74.98  L 311.35 74.94  Z"></path><ellipse cx="0.00" cy="0.00" transform="translate(703.96,79.49) rotate(89.8)" rx="11.97" ry="8.02"></ellipse><path d="  M 509.37 92.12  C 504.07 94.98 499.59 86.88 505.20 83.64  Q 506.98 82.62 512.91 82.87  Q 513.25 82.89 513.29 83.22  Q 514.05 89.59 509.37 92.12  Z"></path></g><g fill="#354463"><path d="  M 160.29 49.20  Q 171.58 40.53 182.66 31.58  Q 186.38 28.58 188.97 27.99  C 194.26 26.80 199.65 29.92 200.26 35.48  C 200.72 39.70 198.63 41.83 195.27 44.48  Q 174.23 61.04 153.22 77.65  Q 150.02 80.18 147.94 80.73  C 143.23 81.96 137.54 79.19 136.48 74.33  C 135.67 70.65 137.77 64.14 138.58 59.79  Q 138.72 59.01 138.11 59.52  Q 117.44 76.96 96.86 94.45  Q 93.05 97.68 90.70 98.32  C 85.98 99.60 80.00 96.52 79.23 91.43  C 78.69 87.84 80.82 81.70 81.97 77.78  A 0.25 0.24 -12.8 0 0 81.57 77.53  Q 65.09 92.15 48.72 106.65  Q 45.56 109.45 43.32 110.13  C 36.39 112.25 28.78 105.83 32.03 98.54  Q 32.84 96.74 35.52 94.36  Q 63.55 69.46 91.71 44.73  Q 97.35 39.77 103.46 43.56  C 110.51 47.94 105.90 57.75 104.59 63.83  Q 104.44 64.52 104.97 64.07  Q 125.84 46.35 146.69 28.68  C 150.46 25.48 156.34 25.65 159.84 29.03  C 162.94 32.02 162.61 35.38 161.65 39.71  Q 160.63 44.30 159.88 48.95  Q 159.78 49.59 160.29 49.20  Z"></path><ellipse cx="0.00" cy="0.00" transform="translate(422.77,40.48) rotate(88.5)" rx="8.27" ry="8.05"></ellipse><path d="  M 276.08 69.45  A 0.37 0.37 0.0 0 0 275.38 69.29  Q 270.69 79.56 265.99 89.51  C 263.23 95.35 256.90 94.63 254.17 89.06  Q 249.48 79.45 245.02 69.67  A 0.34 0.34 0.0 0 0 244.37 69.81  Q 244.47 83.43 244.29 97.25  C 244.22 102.30 238.24 105.82 234.03 102.50  C 231.01 100.12 231.32 96.21 231.31 92.50  Q 231.25 68.37 231.29 44.25  C 231.30 34.48 241.25 32.06 245.43 41.31  Q 252.69 57.40 259.90 73.28  A 0.47 0.47 0.0 0 0 260.75 73.28  Q 268.02 57.13 275.33 40.86  C 279.73 31.08 289.32 35.77 289.26 45.00  Q 289.10 70.62 289.06 96.24  C 289.05 106.05 276.19 106.42 276.05 96.25  Q 275.86 82.70 276.08 69.45  Z"></path><path d="  M 455.31 83.87  Q 455.13 88.80 455.26 95.25  C 455.50 106.44 440.90 106.74 440.86 95.25  Q 440.75 69.50 440.78 43.76  C 440.79 32.79 455.12 32.73 455.18 43.00  Q 455.26 59.00 455.25 74.75  A 0.40 0.40 0.0 0 0 455.96 75.01  Q 462.61 66.89 469.40 58.95  Q 471.80 56.15 473.47 55.54  C 478.10 53.85 482.19 59.75 481.55 63.92  C 480.88 68.30 474.12 74.78 471.01 78.18  Q 470.67 78.54 470.99 78.93  Q 477.12 86.16 479.55 88.68  Q 484.01 93.29 482.29 98.51  C 480.73 103.22 475.72 105.80 471.86 101.39  Q 464.02 92.40 455.91 83.65  Q 455.34 83.03 455.31 83.87  Z"></path><path d="  M 361.66 69.38  Q 361.41 76.10 361.67 87.00  C 361.86 94.89 370.91 88.69 372.46 95.49  C 375.01 106.71 359.22 104.09 354.30 101.21  Q 347.92 97.46 347.52 88.95  Q 347.08 79.44 347.23 69.42  A 0.86 0.86 0.0 0 0 346.19 68.57  C 340.96 69.70 337.65 66.27 338.25 61.32  C 338.84 56.45 342.62 56.57 346.57 56.20  Q 347.11 56.15 347.14 55.61  C 347.47 49.69 346.34 41.16 355.51 42.19  C 362.04 42.93 361.75 50.08 361.54 55.64  Q 361.52 56.22 362.10 56.23  C 366.19 56.37 371.75 55.53 372.53 61.23  C 373.55 68.63 367.75 68.87 362.31 68.76  Q 361.68 68.75 361.66 69.38  Z"></path><path d="  M 311.03 83.43  C 311.37 93.88 321.26 92.13 327.92 89.08  C 336.77 85.03 337.88 97.89 330.39 101.17  C 314.01 108.35 298.92 101.26 296.93 82.72  C 295.56 69.98 302.01 55.90 315.99 55.15  C 324.29 54.71 330.37 59.33 333.50 66.90  C 334.68 69.75 337.23 80.46 334.05 82.47  Q 333.33 82.92 331.77 82.95  Q 321.64 83.12 311.51 82.94  Q 311.01 82.93 311.03 83.43  Z  M 311.35 74.94  L 322.91 74.98  A 0.50 0.50 0.0 0 0 323.41 74.48  L 323.41 74.35  A 7.75 6.22 -89.8 0 0 317.21 66.58  L 317.09 66.58  A 7.75 6.22 -89.8 0 0 310.85 74.31  L 310.85 74.44  A 0.50 0.50 0.0 0 0 311.35 74.94  Z"></path><path d="  M 393.41 63.01  Q 395.78 57.09 402.21 55.56  Q 408.50 54.07 410.05 59.74  C 411.34 64.47 409.77 68.45 404.77 69.47  C 399.26 70.60 393.66 70.76 393.57 78.01  Q 393.48 85.70 393.46 93.41  Q 393.45 98.57 392.29 100.67  C 389.10 106.42 378.96 104.04 378.97 96.24  Q 378.99 79.38 379.14 62.50  C 379.17 57.96 382.30 55.11 386.74 55.35  C 391.24 55.60 392.34 59.05 392.84 62.94  Q 392.98 64.09 393.41 63.01  Z"></path><rect x="415.54" y="55.34" width="14.42" height="48.38" rx="6.92"></rect><path d="  M 513.04 97.96  Q 510.30 104.23 502.72 103.80  C 496.31 103.44 491.90 100.20 489.71 94.16  Q 487.78 88.85 489.50 83.69  C 492.38 75.04 504.98 74.72 512.53 75.04  Q 513.73 75.09 513.64 73.89  C 512.44 57.29 492.79 79.19 490.66 66.62  Q 489.57 60.23 495.19 57.88  C 508.80 52.18 526.41 53.86 527.00 72.75  Q 527.36 84.00 527.22 95.24  C 527.17 99.27 526.46 102.46 522.15 103.55  C 517.01 104.86 515.65 101.82 513.58 97.94  Q 513.29 97.39 513.04 97.96  Z  M 505.20 83.64  C 499.59 86.88 504.07 94.98 509.37 92.12  Q 514.05 89.59 513.29 83.22  Q 513.25 82.89 512.91 82.87  Q 506.98 82.62 505.20 83.64  Z"></path><ellipse cx="27.01" cy="114.10" rx="7.56" ry="7.04"></ellipse><ellipse cx="0.00" cy="0.00" transform="translate(15.69,123.72) rotate(-0.7)" rx="5.54" ry="5.15"></ellipse></g><g fill="#65d693"><ellipse cx="0.00" cy="0.00" transform="translate(207.81,21.09) rotate(-0.5)" rx="9.30" ry="8.69"></ellipse><rect x="-7.87" y="-8.06" transform="translate(615.96,40.46) rotate(-0.3)" width="15.74" height="16.12" rx="7.17"></rect><path d="  M 583.81 68.91  A 0.26 0.26 0.0 0 0 583.32 68.80  Q 578.64 78.92 573.92 88.99  C 571.49 94.15 565.06 95.56 562.29 89.96  Q 557.28 79.86 552.87 69.86  A 0.44 0.44 0.0 0 0 552.02 70.04  Q 552.18 82.95 552.01 95.47  C 551.85 106.55 539.06 105.93 539.03 97.00  Q 538.96 70.26 539.02 43.52  C 539.03 35.27 548.87 32.17 552.47 40.01  Q 560.12 56.68 567.48 73.20  A 0.54 0.54 0.0 0 0 568.47 73.20  Q 575.41 57.75 582.10 42.43  C 583.83 38.46 587.65 33.53 592.52 36.18  Q 596.69 38.44 596.70 43.76  Q 596.77 70.00 596.69 96.25  C 596.67 104.08 586.98 106.93 584.35 99.65  Q 583.76 98.01 583.77 93.77  Q 583.81 81.29 583.81 68.91  Z"></path><path d="  M 711.07 61.00  A 0.30 0.30 0.0 0 0 711.61 60.82  Q 711.44 52.67 711.60 44.54  C 711.70 39.10 713.55 34.56 719.77 35.52  Q 725.99 36.48 726.02 43.51  Q 726.14 68.84 726.01 94.18  C 725.98 99.09 724.90 103.33 719.52 103.77  Q 713.17 104.28 712.14 97.88  Q 712.03 97.16 711.50 97.67  C 710.06 99.07 708.94 100.88 707.22 101.80  C 696.00 107.78 686.36 100.43 683.23 89.52  C 679.87 77.80 681.66 59.72 695.49 55.76  C 701.51 54.04 707.37 56.07 711.07 61.00  Z  M 704.0018 91.4599  A 11.97 8.02 89.8 0 0 711.9800 79.4620  A 11.97 8.02 89.8 0 0 703.9182 67.5201  A 11.97 8.02 89.8 0 0 695.9400 79.5180  A 11.97 8.02 89.8 0 0 704.0018 91.4599  Z"></path><path d="  M 648.89 61.43  C 650.03 60.28 650.93 58.85 652.16 57.98  C 659.33 52.85 669.96 54.44 673.24 63.26  Q 674.68 67.12 674.82 71.26  Q 675.17 81.46 675.10 91.67  C 675.05 97.72 675.37 103.09 668.53 103.74  C 662.49 104.32 660.73 99.84 660.70 94.49  Q 660.64 83.99 660.49 73.52  C 660.43 69.02 656.51 66.73 652.60 68.92  Q 648.70 71.10 648.62 76.50  Q 648.48 85.23 648.51 93.96  C 648.53 98.81 647.67 103.14 642.31 103.66  C 637.06 104.17 634.05 100.94 634.03 95.74  Q 633.96 80.59 634.02 65.42  C 634.04 60.99 634.40 57.75 638.35 55.95  C 642.82 53.91 647.03 56.52 648.12 61.21  Q 648.31 62.01 648.89 61.43  Z"></path><rect x="608.77" y="55.32" width="14.44" height="48.42" rx="6.96"></rect></g></svg>